<?xml version="1.0" standalone="no"?>
<!DOCTYPE svg PUBLIC "-//W3C//DTD SVG 1.1//EN" "http://www.w3.org/Graphics/SVG/1.1/DTD/svg11.dtd" >
<svg xmlns="http://www.w3.org/2000/svg" xmlns:xlink="http://www.w3.org/1999/xlink" version="1.1">
<metadata></metadata>
<defs>
<font id="abel_proregular" horiz-adv-x="929" >
<font-face units-per-em="2048" ascent="1536" descent="-512" />
<missing-glyph horiz-adv-x="471" />
<glyph horiz-adv-x="0" />
<glyph unicode="&#xd;" horiz-adv-x="681" />
<glyph unicode=" "  horiz-adv-x="471" />
<glyph unicode="&#x09;" horiz-adv-x="471" />
<glyph unicode="&#xa0;" horiz-adv-x="471" />
<glyph unicode="!" horiz-adv-x="428" d="M123 1434h182l-55 -1000h-72zM137 0v154h154v-154h-154z" />
<glyph unicode="&#x22;" horiz-adv-x="645" d="M123 1434h153l-51 -441h-51zM369 1434h153l-51 -441h-51z" />
<glyph unicode="#" horiz-adv-x="1310" d="M123 365v102h225l41 500h-225v102h235l31 365h121l-31 -365h332l31 365h121l-31 -365h215v-102h-225l-41 -500h225v-102h-236l-30 -365h-121l31 365h-332l-31 -365h-121l31 365h-215zM469 467h332l41 500h-332z" />
<glyph unicode="$" horiz-adv-x="1062" d="M143 332v57l129 21v-78q0 -94 63.5 -160t156.5 -70v582q-80 29 -130.5 53.5t-106.5 69.5t-84 111.5t-28 156.5v27q0 145 102.5 247.5t246.5 104.5v184h102v-184q143 -4 244.5 -106.5t101.5 -245.5v-37l-129 -21v58q0 92 -63.5 158.5t-153.5 70.5v-555q82 -33 132 -57.5 t108.5 -71.5t87 -114.5t28.5 -157.5v-43q0 -145 -103.5 -248.5t-248.5 -103.5h-4v-226h-102v226q-145 2 -247 104t-102 248zM272 1075q0 -98 56.5 -154.5t163.5 -103.5v514q-92 -4 -156 -70.5t-64 -158.5v-27zM594 102q94 0 160.5 68t66.5 162v43q0 106 -58 165.5 t-169 104.5v-543z" />
<glyph unicode="%" horiz-adv-x="1382" d="M143 915v349q0 74 52.5 126t126.5 52h28q74 0 126 -52t52 -126v-349q0 -74 -52 -126t-126 -52h-28q-74 0 -126.5 52.5t-52.5 125.5zM225 0l817 1434h115l-817 -1434h-115zM242 915q0 -35 24.5 -58t59.5 -23h20q35 0 59.5 23t24.5 58v349q0 35 -24.5 58.5t-59.5 23.5h-20 q-35 0 -59.5 -24t-24.5 -58v-349zM854 170v348q0 74 52 126t126 52h29q74 0 126 -52t52 -126v-348q0 -74 -52 -126t-126 -52h-29q-74 0 -126 52t-52 126zM952 170q0 -35 24.5 -58.5t59.5 -23.5h21q35 0 59.5 23.5t24.5 58.5v348q0 35 -24.5 58.5t-59.5 23.5h-21 q-35 0 -59.5 -23.5t-24.5 -58.5v-348z" />
<glyph unicode="&#x26;" horiz-adv-x="1271" d="M143 332v78q0 100 51.5 183t135.5 128q-84 45 -135.5 128t-51.5 183v70q0 145 103.5 248.5t249.5 103.5h61q145 0 248.5 -103.5t103.5 -248.5v-10l-129 -21v31q0 94 -66.5 161.5t-162.5 67.5h-49q-96 0 -163 -67.5t-67 -161.5v-90q0 -94 67 -162t163 -68h606v-120h-199 v-345q4 -96 52.5 -155.5t136.5 -59.5h30l-18 -122h-18q-170 0 -254 137q-106 -137 -281 -137h-61q-145 0 -249 103t-104 249zM272 332q0 -94 67 -162t163 -68h49q92 0 158.5 63.5t70.5 156.5v337h-278q-96 0 -163 -67.5t-67 -161.5v-98z" />
<glyph unicode="'" horiz-adv-x="399" d="M143 993v441h154l-102 -441h-52z" />
<glyph unicode="(" horiz-adv-x="684" d="M123 598q0 586 428 1008l72 -72q-174 -180 -275.5 -420t-101.5 -516t101.5 -516t275.5 -420l-72 -72q-428 422 -428 1008z" />
<glyph unicode=")" horiz-adv-x="684" d="M61 -338q174 180 275.5 420t101.5 516t-101 516t-276 420l72 72q428 -422 428 -1008t-428 -1008z" />
<glyph unicode="*" horiz-adv-x="993" d="M102 1096l45 137l308 -131l-31 332h145l-30 -332l307 131l45 -137l-326 -74l221 -250l-118 -86l-170 287l-172 -287l-119 86l221 250z" />
<glyph unicode="+" horiz-adv-x="1187" d="M82 653v129h446v447h129v-447h449v-129h-449v-448h-129v448h-446z" />
<glyph unicode="," horiz-adv-x="440" d="M143 154h154l-102 -441h-52v441z" />
<glyph unicode="-" horiz-adv-x="587" d="M102 627v116h383v-116h-383z" />
<glyph unicode="." horiz-adv-x="440" d="M143 0v154h154v-154h-154z" />
<glyph unicode="/" horiz-adv-x="782" d="M41 -123l571 1679h129l-571 -1679h-129z" />
<glyph unicode="0" horiz-adv-x="1052" d="M143 332v770q0 145 103.5 248.5t249.5 103.5h61q145 0 248.5 -103.5t103.5 -248.5v-770q0 -145 -103.5 -248.5t-248.5 -103.5h-61q-145 0 -249 103t-104 249zM272 332q0 -94 67 -162t163 -68h49q96 0 162.5 68t66.5 162v770q0 94 -66.5 161.5t-162.5 67.5h-49 q-96 0 -163 -67.5t-67 -161.5v-770z" />
<glyph unicode="1" horiz-adv-x="1058" d="M164 0v123h342v1188l-342 -144v123l342 144h129v-1311h342v-123h-813z" />
<glyph unicode="2" horiz-adv-x="1011" d="M82 0v102q27 20 72 59.5t160.5 154t203.5 226t160 262t72 277.5q0 119 -67 184.5t-163 65.5h-49q-94 0 -161.5 -67.5t-67.5 -161.5v-58l-129 21v37q0 145 103 248.5t249 103.5h61q150 0 251.5 -103.5t101.5 -269.5q0 -127 -61.5 -272t-148.5 -262t-174 -215.5 t-149 -153.5l-61 -55h604v-123h-807z" />
<glyph unicode="3" horiz-adv-x="1052" d="M143 332v37l129 20v-57q0 -94 67 -162t163 -68h49q96 0 162.5 68t66.5 162v119q0 94 -66.5 161.5t-162.5 67.5h-96v123h96q96 0 162.5 67.5t66.5 161.5v70q0 94 -66.5 161.5t-162.5 67.5h-49q-96 0 -163 -67.5t-67 -161.5v-58l-129 21v37q0 145 103.5 248.5t249.5 103.5 h61q145 0 248.5 -103.5t103.5 -248.5v-49q0 -100 -51 -183.5t-135 -128.5q84 -45 135 -128t51 -183v-98q0 -145 -103.5 -248.5t-248.5 -103.5h-61q-145 0 -249 103t-104 249z" />
<glyph unicode="4" horiz-adv-x="1032" d="M61 248v61l637 1125h68v-1063h123v-123h-123v-248h-129v248h-576zM242 371h395v710z" />
<glyph unicode="5" horiz-adv-x="1052" d="M143 332v22h129v-22q0 -94 67 -162t163 -68h49q96 0 162.5 68t66.5 162v278q0 94 -66.5 162t-162.5 68h-49q-96 0 -163 -67.5t-67 -162.5h-129l82 824h613v-123h-492l-47 -441q98 92 238 93h20q145 0 248.5 -104t103.5 -249v-278q0 -145 -103.5 -248.5t-248.5 -103.5h-61 q-145 0 -249 103t-104 249z" />
<glyph unicode="6" horiz-adv-x="1052" d="M164 332v770q0 145 103.5 248.5t248.5 103.5h62q145 0 248.5 -103.5t103.5 -248.5v-37l-129 -21v58q0 94 -66.5 161.5t-163.5 67.5h-49q-96 0 -162.5 -67.5t-66.5 -161.5v-357q109 119 264 119h21q145 0 248.5 -103.5t103.5 -248.5v-180q0 -145 -103.5 -248.5 t-248.5 -103.5h-62q-145 0 -248.5 103t-103.5 249zM293 332q0 -94 66.5 -162t162.5 -68h49q96 0 163 68t67 162v180q0 94 -66.5 161.5t-163.5 67.5h-49q-96 0 -162.5 -67.5t-66.5 -161.5v-180z" />
<glyph unicode="7" horiz-adv-x="1052" d="M164 1120v314h786v-62l-561 -1372h-135l537 1311h-498v-191h-129z" />
<glyph unicode="8" horiz-adv-x="1052" d="M143 332v119q0 184 154 290q-154 106 -154 291v70q0 145 103.5 248.5t249.5 103.5h61q145 0 248.5 -103.5t103.5 -248.5v-70q0 -184 -153 -291q153 -106 153 -290v-119q0 -145 -103.5 -248.5t-248.5 -103.5h-61q-145 0 -249 103t-104 249zM272 332q0 -94 67 -162t163 -68 h49q96 0 162.5 68t66.5 162v119q0 94 -66.5 161.5t-162.5 67.5h-49q-96 0 -163 -67.5t-67 -161.5v-119zM272 1032q0 -94 67 -161.5t163 -67.5h49q96 0 162.5 67.5t66.5 161.5v70q0 94 -66.5 161.5t-162.5 67.5h-49q-96 0 -163 -67.5t-67 -161.5v-70z" />
<glyph unicode="9" horiz-adv-x="1052" d="M164 332v37l129 20v-57q0 -94 66.5 -162t162.5 -68h49q96 0 163 68t67 162v356q-109 -119 -264 -119h-21q-145 0 -248.5 103.5t-103.5 249.5v180q0 145 103.5 248.5t248.5 103.5h62q145 0 248.5 -103.5t103.5 -248.5v-770q0 -145 -103.5 -248.5t-248.5 -103.5h-62 q-145 0 -248.5 103t-103.5 249zM293 922q0 -94 66.5 -162t162.5 -68h49q96 0 163 68t67 162v180q0 94 -66.5 161.5t-163.5 67.5h-49q-96 0 -162.5 -67.5t-66.5 -161.5v-180z" />
<glyph unicode=":" horiz-adv-x="440" d="M143 0v154h154v-154h-154zM143 870v154h154v-154h-154z" />
<glyph unicode=";" horiz-adv-x="440" d="M143 154h154l-102 -441h-52v441zM143 870v154h154v-154h-154z" />
<glyph unicode="&#x3c;" horiz-adv-x="1249" d="M102 645v146l1024 456v-141l-878 -389l878 -387v-142z" />
<glyph unicode="=" horiz-adv-x="1351" d="M164 463v129h1024v-129h-1024zM164 844v129h1024v-129h-1024z" />
<glyph unicode="&#x3e;" horiz-adv-x="1249" d="M123 188v142l876 387l-876 389v141l1024 -456v-146z" />
<glyph unicode="?" horiz-adv-x="950" d="M102 1065v37q0 145 103.5 248.5t249.5 103.5h41q145 0 248.5 -103.5t103.5 -248.5v-19q0 -102 -39 -178t-94.5 -120t-109.5 -85t-93 -97t-39 -130v-39h-129v39q0 96 39 167t94 114t109.5 83t93.5 101t39 145v19q0 94 -66.5 161.5t-163.5 67.5h-28q-96 0 -163 -67.5 t-67 -161.5v-58zM332 0v154h153v-154h-153z" />
<glyph unicode="@" horiz-adv-x="2045" d="M143 367q0 289 131.5 538.5t363.5 399t507 149.5q346 0 552 -221t206 -567q0 -125 -30 -249t-86 -230.5t-149.5 -172t-207.5 -65.5q-184 0 -256 155q-111 -125 -263 -124h-30q-121 0 -198 90t-60 211l63 462q16 123 118.5 212t225.5 89h31q154 0 225 -124l84 104h41 l-106 -770q-27 -195 149 -195q125 0 223.5 170t98.5 420q0 303 -173 494.5t-475 191.5q-240 0 -438 -130t-309 -348t-111 -474q0 -307 164 -500.5t461 -193.5q217 0 369 88l41 -94q-186 -113 -426 -113q-344 0 -540 223t-196 574zM743 274q-10 -72 32 -125t122 -53h82 q74 0 133 52.5t70 125.5l67 476q10 70 -37 124t-116 54h-82q-74 0 -133.5 -52t-69.5 -126z" />
<glyph unicode="A" horiz-adv-x="950" d="M20 0l420 1434h68l422 -1434h-133l-95 334h-454l-94 -334h-134zM283 457h385l-189 661l-4 53l-4 -53z" />
<glyph unicode="B" horiz-adv-x="1052" d="M164 0v1434h454q145 0 249 -103.5t104 -249.5v-14q0 -100 -51.5 -183t-135.5 -128q84 -45 135.5 -128.5t51.5 -183.5v-92q0 -145 -103.5 -248.5t-249.5 -103.5h-454zM293 123h319q96 0 163 67.5t67 161.5v113q0 96 -66.5 162.5t-163.5 66.5h-319v-571zM293 817h319 q96 0 163 67t67 163v34q0 94 -66.5 162t-163.5 68h-319v-494z" />
<glyph unicode="C" horiz-adv-x="1073" d="M143 332v770q0 145 103.5 248.5t249.5 103.5h102q145 0 248.5 -103.5t103.5 -248.5v-58l-129 -20v78q0 94 -66.5 161.5t-162.5 67.5h-90q-96 0 -163 -67.5t-67 -161.5v-770q0 -94 67 -162t163 -68h90q96 0 162.5 68t66.5 162v78l129 -21v-57q0 -145 -103.5 -248.5 t-248.5 -103.5h-102q-145 0 -249 103t-104 249z" />
<glyph unicode="D" horiz-adv-x="1114" d="M164 0v1434h454q145 0 249 -104t104 -249v-729q0 -145 -103.5 -248.5t-249.5 -103.5h-454zM293 123h319q96 0 163 67.5t67 161.5v729q0 94 -66.5 162t-163.5 68h-319v-1188z" />
<glyph unicode="E" horiz-adv-x="1052" d="M164 0v1434h807v-123h-678v-533h549v-123h-549v-532h678v-123h-807z" />
<glyph unicode="F" horiz-adv-x="1011" d="M164 0v1434h807v-123h-678v-533h549v-123h-549v-655h-129z" />
<glyph unicode="G" horiz-adv-x="1093" d="M143 332v770q0 145 103.5 248.5t249.5 103.5h102q145 0 248.5 -103.5t103.5 -248.5v-58l-129 -20v78q0 94 -66.5 161.5t-162.5 67.5h-90q-96 0 -163 -67.5t-67 -161.5v-770q0 -94 67 -162t163 -68h90q96 0 162.5 68t66.5 162v299h-229v123h358v-754h-41l-75 115 q-100 -135 -263 -135h-75q-145 0 -249 103t-104 249z" />
<glyph unicode="H" horiz-adv-x="1134" d="M164 0v1434h129v-656h549v656h129v-1434h-129v655h-549v-655h-129z" />
<glyph unicode="I" horiz-adv-x="456" d="M164 0v1434h129v-1434h-129z" />
<glyph unicode="J" d="M61 332v57l129 21v-78q0 -94 67 -162t163 -68h29q96 0 162.5 68t66.5 162v1102h129v-1102q0 -145 -103.5 -248.5t-248.5 -103.5h-41q-145 0 -249 103t-104 249z" />
<glyph unicode="K" horiz-adv-x="1064" d="M164 0v1434h129v-1434h-129zM324 717l540 717h160l-551 -717l551 -717h-160z" />
<glyph unicode="L" horiz-adv-x="862" d="M143 0v1434h129v-1311h549v-123h-678z" />
<glyph unicode="M" horiz-adv-x="1339" d="M164 0v1434h67l435 -1176l4 -53l4 53l434 1176h68v-1434h-129v983l-9 -61l-333 -922h-68l-336 922l-8 61v-983h-129z" />
<glyph unicode="N" horiz-adv-x="1134" d="M164 0v1434h67l598 -1045l13 -61v1106h129v-1434h-68l-598 1044l-12 62v-1106h-129z" />
<glyph unicode="O" horiz-adv-x="1093" d="M143 332v770q0 145 103.5 248.5t249.5 103.5h102q145 0 248.5 -103.5t103.5 -248.5v-770q0 -145 -103.5 -248.5t-248.5 -103.5h-102q-145 0 -249 103t-104 249zM272 332q0 -94 67 -162t163 -68h90q96 0 162.5 68t66.5 162v770q0 94 -66.5 161.5t-162.5 67.5h-90 q-96 0 -163 -67.5t-67 -161.5v-770z" />
<glyph unicode="P" horiz-adv-x="1052" d="M164 0v1434h454q145 0 249 -104t104 -249v-178q0 -145 -103.5 -248.5t-249.5 -103.5h-325v-551h-129zM293 674h319q96 0 163 66.5t67 162.5v178q0 94 -66.5 162t-163.5 68h-319v-637z" />
<glyph unicode="Q" horiz-adv-x="1093" d="M143 332v770q0 145 103.5 248.5t249.5 103.5h102q145 0 248.5 -103.5t103.5 -248.5v-770q0 -139 -94 -240.5t-231 -111.5l131 -295h-129l-131 295q-145 0 -249 103t-104 249zM272 332q0 -94 67 -162t163 -68h90q96 0 162.5 68t66.5 162v770q0 94 -66.5 161.5t-162.5 67.5 h-90q-96 0 -163 -67.5t-67 -161.5v-770z" />
<glyph unicode="R" horiz-adv-x="1069" d="M143 0v1434h455q145 0 248.5 -103.5t103.5 -249.5v-116q0 -145 -103.5 -249t-248.5 -104l389 -612h-149l-389 612h-177v-612h-129zM272 735h320q96 0 162.5 67t66.5 163v116q0 94 -66.5 162t-162.5 68h-320v-576z" />
<glyph unicode="S" horiz-adv-x="1062" d="M123 332v57l129 21v-78q0 -94 71.5 -162t168.5 -68h90q96 0 167.5 68t71.5 162v43q0 80 -38 136t-97 89t-131 59.5t-144.5 57.5t-132 71.5t-97.5 113.5t-38 173v27q0 145 103.5 248.5t249.5 103.5h92q145 0 248.5 -103.5t103.5 -248.5v-37l-129 -21v58q0 94 -67.5 161.5 t-161.5 67.5h-80q-96 0 -163 -67.5t-67 -161.5v-27q0 -76 38 -129t97.5 -86t131 -60.5t144.5 -60t132 -74.5t97 -116t38 -174v-43q0 -145 -107.5 -248.5t-254.5 -103.5h-103q-147 0 -254.5 103t-107.5 249z" />
<glyph unicode="T" horiz-adv-x="894" d="M41 1311v123h813v-123h-342v-1311h-129v1311h-342z" />
<glyph unicode="U" horiz-adv-x="1093" d="M143 332v1102h129v-1102q0 -94 67 -162t163 -68h90q96 0 162.5 68t66.5 162v1102h129v-1102q0 -145 -103.5 -248.5t-248.5 -103.5h-102q-145 0 -249 103t-104 249z" />
<glyph unicode="V" horiz-adv-x="950" d="M20 1434h134l317 -1119l4 -53l4 53l318 1119h133l-422 -1434h-68z" />
<glyph unicode="W" horiz-adv-x="1542" d="M41 1434h129l281 -1090l4 -53l4 53l276 1090h72l276 -1090l4 -53l5 53l280 1090h129l-379 -1434h-67l-279 1079l-4 56l-6 -56l-277 -1079h-67z" />
<glyph unicode="X" horiz-adv-x="991" d="M61 0l365 737l-344 697h139l275 -555l274 555h139l-344 -697l365 -737h-139l-295 596l-295 -596h-140z" />
<glyph unicode="Y" horiz-adv-x="950" d="M41 1434h139l295 -596l295 596h139l-368 -748v-686h-129v684z" />
<glyph unicode="Z" horiz-adv-x="970" d="M82 0v61l639 1250h-619v123h787v-62l-639 -1249h639v-123h-807z" />
<glyph unicode="[" horiz-adv-x="632" d="M164 -410v2016h366v-111h-243v-1794h243v-111h-366z" />
<glyph unicode="\" horiz-adv-x="782" d="M41 1556h129l571 -1679h-129z" />
<glyph unicode="]" horiz-adv-x="632" d="M102 -299h244v1794h-244v111h367v-2016h-367v111z" />
<glyph unicode="^" horiz-adv-x="1103" d="M123 776l360 658h138l360 -658h-137l-293 539l-291 -539h-137z" />
<glyph unicode="_" horiz-adv-x="1122" d="M-2 -293h1126v-117h-1126v117z" />
<glyph unicode="`" horiz-adv-x="778" d="M205 1434h205l163 -246h-92z" />
<glyph unicode="a" horiz-adv-x="940" d="M123 281v10q0 125 88 213t213 88h260v158q0 74 -52 126t-126 52h-72q-74 0 -126 -52.5t-52 -125.5v-37l-123 20v10q0 125 88 213t213 88h72q125 0 213 -88t88 -213v-743h-41l-68 102q-91 -122 -241 -122h-2h-31q-125 0 -213 88t-88 213zM246 274q0 -74 52 -126t126 -52 h82q74 0 126 52t52 126v222h-260q-74 0 -126 -52.5t-52 -126.5v-43z" />
<glyph unicode="b" horiz-adv-x="940" d="M133 281v1153h123v-496q90 106 229 106h31q125 0 213 -88t88 -213v-462q0 -125 -88 -213t-213 -88h-82q-125 0 -213 88t-88 213zM256 274q0 -74 52 -126t126 -52h82q74 0 126 52t52 126v476q0 74 -52 126t-126 52h-82q-74 0 -126 -52.5t-52 -125.5v-476z" />
<glyph unicode="c" d="M123 281v462q0 125 88 213t213 88h82q125 0 213 -88t88 -213v-41l-123 -20v68q0 74 -52 126t-126 52h-82q-74 0 -126 -52.5t-52 -125.5v-476q0 -74 52 -126t126 -52h82q74 0 126 52.5t52 125.5v68l123 -20v-41q0 -125 -88 -213t-213 -88h-82q-125 0 -213 88t-88 213z" />
<glyph unicode="d" horiz-adv-x="950" d="M123 281v462q0 125 88 213t213 88h31q139 0 229 -106v496h123v-1434h-41l-68 104q-91 -124 -241 -124h-2h-31q-125 0 -213 88t-88 213zM246 274q0 -74 52 -126t126 -52h82q74 0 126 52t52 126v476q0 74 -52 126t-126 52h-82q-74 0 -126 -52.5t-52 -125.5v-476z" />
<glyph unicode="e" d="M123 281v462q0 125 88 213t213 88h82q125 0 213 -88t88 -213v-241h-561v-228q0 -74 52 -126t126 -52h82q74 0 126 52.5t52 125.5v68l123 -20v-41q0 -125 -88 -213t-213 -88h-82q-125 0 -213 88t-88 213zM246 598h438v152q0 74 -52 126t-126 52h-82q-74 0 -126 -52.5 t-52 -125.5v-152z" />
<glyph unicode="f" horiz-adv-x="587" d="M20 907v117h185v139q0 113 78.5 192t191.5 79h113v-117h-113q-61 0 -104 -43t-43 -105v-145h239v-117h-239v-907h-123v907h-185z" />
<glyph unicode="g" d="M123 666v77q0 125 88 213t213 88h51q152 0 244 -124l67 104h41v-358q0 -125 -88 -213t-213 -88h-178q-43 0 -73.5 -31t-30.5 -74t30.5 -73.5t73.5 -30.5h168q127 0 214 -79t87 -202v-4q0 -123 -87 -202t-214 -79h-51q-127 0 -214 79t-87 202v4q0 119 82 197 q-104 63 -105 188q0 113 86 176q-104 90 -104 230zM246 659q0 -74 52 -126t126 -52h102q74 0 126.5 52t52.5 126v91q0 74 -52.5 126t-126.5 52h-102q-74 0 -126 -52.5t-52 -125.5v-91zM281 -119v-16q0 -72 51 -115t127 -43h63q76 0 127 43t51 115v16q0 72 -51 115t-127 43 h-63q-76 0 -127 -43t-51 -115z" />
<glyph unicode="h" horiz-adv-x="960" d="M143 0v1434h123v-496q90 106 230 106h30q125 0 213 -88t88 -213v-743h-122v750q0 74 -52.5 126t-126.5 52h-82q-74 0 -126 -52.5t-52 -125.5v-750h-123z" />
<glyph unicode="i" horiz-adv-x="409" d="M133 1270v164h143v-164h-143zM143 0v1024h123v-1024h-123z" />
<glyph unicode="j" horiz-adv-x="409" d="M-35 -293q74 0 126 52.5t52 125.5v1139h123v-1133q0 -125 -88 -213t-213 -88v117zM133 1270v164h143v-164h-143z" />
<glyph unicode="k" horiz-adv-x="870" d="M143 0v1434h123v-1434h-123zM291 512l418 512h159l-428 -512l428 -512h-159z" />
<glyph unicode="l" horiz-adv-x="409" d="M143 0v1434h123v-1434h-123z" />
<glyph unicode="m" horiz-adv-x="1480" d="M143 0v1024h41l68 -104q91 124 242 124h2h10q84 0 155.5 -43t108.5 -114q39 72 110.5 114.5t155.5 42.5h11q125 0 213 -88t88 -213v-743h-123v750q0 74 -52.5 126t-125.5 52h-62q-74 0 -126 -52.5t-52 -125.5v-750h-123v750q0 74 -52 126t-126 52h-62q-74 0 -126 -52.5 t-52 -125.5v-750h-123z" />
<glyph unicode="n" horiz-adv-x="960" d="M143 0v1024h41l68 -104q91 124 242 124h2h30q125 0 213 -88t88 -213v-743h-122v750q0 74 -52.5 126t-126.5 52h-82q-74 0 -126 -52.5t-52 -125.5v-750h-123z" />
<glyph unicode="o" d="M123 281v462q0 125 88 213t213 88h82q125 0 213 -88t88 -213v-462q0 -125 -88 -213t-213 -88h-82q-125 0 -213 88t-88 213zM246 274q0 -74 52 -126t126 -52h82q74 0 126 52t52 126v476q0 74 -52 126t-126 52h-82q-74 0 -126 -52.5t-52 -125.5v-476z" />
<glyph unicode="p" horiz-adv-x="950" d="M143 -410v1434h41l68 -104q91 124 242 124h2h30q125 0 213 -88t88 -213v-462q0 -125 -88 -213t-213 -88h-30q-139 0 -230 106v-496h-123zM266 274q0 -74 52.5 -126t125.5 -52h82q74 0 126.5 52t52.5 126v476q0 74 -52.5 126t-126.5 52h-82q-74 0 -126 -52.5t-52 -125.5 v-476z" />
<glyph unicode="q" horiz-adv-x="950" d="M123 281v462q0 125 88 213t213 88h31q152 0 243 -124l68 104h41v-1434h-123v496q-90 -106 -229 -106h-31q-125 0 -213 88t-88 213zM246 274q0 -74 52 -126t126 -52h82q74 0 126 52t52 126v476q0 74 -52 126t-126 52h-82q-74 0 -126 -52.5t-52 -125.5v-476z" />
<glyph unicode="r" horiz-adv-x="608" d="M143 0v1024h41l68 -104q91 124 242 124h2h71v-137h-123q-74 0 -126 -52t-52 -126v-729h-123z" />
<glyph unicode="s" horiz-adv-x="940" d="M123 281v41l123 20v-68q0 -74 57 -126t131 -52h82q78 0 133.5 43t55.5 115q0 68 -42 113t-103.5 63.5t-135.5 42t-135.5 50t-103.5 88t-42 153.5q0 123 87 201.5t214 78.5h72q125 0 213 -88t88 -213v-4l-123 -20v31q0 74 -52 126t-126 52h-72q-76 0 -127 -43t-51 -115 q0 -76 57.5 -121t140.5 -68.5t166 -51t140 -94t57 -175.5q0 -121 -92 -200.5t-219 -79.5h-82q-125 0 -218 89t-93 212z" />
<glyph unicode="t" horiz-adv-x="710" d="M41 907v117h184v246l123 20v-266h260v-117h-260v-643q0 -61 43 -104t105 -43h112v-117h-112q-113 0 -192 79t-79 191v637h-184z" />
<glyph unicode="u" horiz-adv-x="960" d="M133 281v743h123v-750q0 -74 52 -126t126 -52h82q74 0 126 52.5t52 125.5v750h123v-1024h-41l-67 104q-91 -124 -242 -124h-2h-31q-125 0 -213 88t-88 213z" />
<glyph unicode="v" horiz-adv-x="827" d="M20 1024h123l267 -776l4 -53l4 53l266 776h123l-363 -1024h-61z" />
<glyph unicode="w" horiz-adv-x="1347" d="M20 1024h125l244 -774l4 -53l4 53l240 774h74l239 -774l4 -53l4 53l244 774h125l-342 -1024h-67l-240 772l-4 53l-4 -53l-240 -772h-68z" />
<glyph unicode="x" horiz-adv-x="868" d="M82 0l287 512l-287 512h133l219 -393l219 393h133l-286 -512l286 -512h-133l-219 393l-219 -393h-133z" />
<glyph unicode="y" horiz-adv-x="806" d="M20 1024h123l267 -776l4 -53l4 53l266 776h123l-518 -1434h-119l182 498z" />
<glyph unicode="z" horiz-adv-x="847" d="M82 0v55l516 852h-496v117h664v-55l-516 -852h516v-117h-684z" />
<glyph unicode="{" horiz-adv-x="778" d="M82 543v110h33q96 4 157.5 66.5t61.5 163.5v370q0 154 100.5 253.5t251.5 99.5h10v-111h-10q-100 0 -164.5 -63.5t-64.5 -165.5v-371q0 -94 -42 -173t-114 -124q156 -102 156 -297v-371q0 -102 64.5 -165.5t164.5 -63.5h10v-111h-10q-152 0 -252 99.5t-100 253.5v370 q0 102 -64.5 166t-165.5 64h-22z" />
<glyph unicode="|" horiz-adv-x="456" d="M164 -410v2016h129v-2016h-129z" />
<glyph unicode="}" horiz-adv-x="778" d="M82 -299h10q100 0 165 63.5t65 165.5v371q0 197 155 297q-156 96 -155 297v371q0 102 -64.5 165.5t-165.5 63.5h-10v111h10q152 0 252 -99.5t100 -253.5v-370q0 -102 64.5 -166t165.5 -64h22v-110h-32q-96 -4 -158 -67t-62 -163v-370q0 -154 -100 -253.5t-252 -99.5h-10 v111z" />
<glyph unicode="~" horiz-adv-x="985" d="M102 494q0 113 58.5 185.5t167.5 72.5q84 0 185 -74t146 -74q53 0 85 41t32 105h107q0 -113 -58.5 -185.5t-167.5 -72.5q-84 0 -185 73.5t-146 73.5q-53 0 -85 -41t-32 -104h-107z" />
<glyph unicode="&#xa1;" horiz-adv-x="428" d="M123 -410l55 1000h72l55 -1000h-182zM137 870v154h154v-154h-154z" />
<glyph unicode="&#xa2;" d="M123 485v463q0 125 88 213t213 88h82q39 0 65 -8l66 213h108l-77 -252q63 -41 101 -108.5t38 -145.5v-41l-123 -20v67q0 74 -53 127l-238 -778q10 -2 31 -2h82q74 0 126 52.5t52 125.5v68l123 -21v-41q0 -125 -88 -213t-213 -88h-82q-35 0 -66 6l-65 -210h-109l78 251 q-63 41 -101 109t-38 145zM246 479q0 -74 53 -127l238 776q-20 4 -31 5h-82q-74 0 -126 -52.5t-52 -126.5v-475z" />
<glyph unicode="&#xa3;" horiz-adv-x="1107" d="M123 0v123h35q94 0 151.5 65.5t57.5 163.5q0 96 -33 232h-211v102h180q-78 272 -78 416q0 145 103.5 248.5t249.5 103.5h28q145 0 248.5 -103.5t103.5 -248.5v-37l-129 -21v58q0 94 -66.5 161.5t-162.5 67.5h-16q-96 0 -163 -67.5t-67 -161.5q0 -35 4 -74t8.5 -65.5 t16.5 -73.5t16 -63.5t20.5 -73t20.5 -66.5h340v-102h-313q29 -129 29 -232q0 -131 -76 -229h545v-123h-842z" />
<glyph unicode="&#xa4;" horiz-adv-x="1236" d="M123 313l153 154q-82 106 -81 252q0 141 79 250l-149 151l90 92l150 -151q113 84 254 84t251 -84l152 151l90 -92l-149 -149q82 -115 81 -252q0 -141 -83 -252l153 -154l-92 -90l-154 152q-109 -80 -250 -80q-143 0 -251 80l-152 -152zM317 719q0 -127 87.5 -216t214 -89 t215 89t88.5 216t-88.5 217t-215 90t-214 -89t-87.5 -218z" />
<glyph unicode="&#xa5;" horiz-adv-x="950" d="M41 1434h139l295 -596l295 596h139l-356 -723h274v-103h-286v-133h286v-102h-286v-373h-129v373h-289v102h289v133h-289v103h274z" />
<glyph unicode="&#xa6;" horiz-adv-x="456" d="M164 -410v906h129v-906h-129zM164 700v906h129v-906h-129z" />
<glyph unicode="&#xa7;" horiz-adv-x="1073" d="M123 -20l129 20v-78q0 -94 71.5 -161.5t168.5 -67.5h90q96 0 167.5 67.5t71.5 161.5v43q0 80 -38 136.5t-97 89t-131 59t-144.5 57.5t-132 72t-97.5 113.5t-38 173.5v26q0 98 52 185q-52 79 -52 198v27q0 145 103.5 248.5t249.5 103.5h92q145 0 248.5 -103.5 t103.5 -248.5v-37l-129 -21v58q0 94 -67.5 161.5t-161.5 67.5h-80q-96 0 -163 -67.5t-67 -161.5v-27q0 -76 38 -129t97.5 -86t131 -60.5t144.5 -60t132 -74.5t97 -116t38 -174v-43q0 -92 -49 -174q49 -82 49 -193v-43q0 -145 -107.5 -248.5t-254.5 -103.5h-103 q-147 0 -254.5 103.5t-107.5 248.5v58zM272 666q0 -90 58.5 -153.5t132.5 -92.5t179.5 -72t164.5 -88q14 39 14 72v43q0 78 -34.5 134t-96 90t-126 57.5t-143.5 56t-130 67.5q-18 -39 -19 -88v-26z" />
<glyph unicode="&#xa8;" horiz-adv-x="950" d="M205 1231v153h153v-153h-153zM592 1231v153h153v-153h-153z" />
<glyph unicode="&#xa9;" horiz-adv-x="1679" d="M102 717q0 305 216.5 521t521.5 216t521 -216t216 -521t-216 -521t-521 -216t-521.5 216t-216.5 521zM217 717q0 -264 180.5 -447.5t442.5 -183.5t442 183.5t180 447.5t-180 447.5t-442 183.5t-442.5 -183.5t-180.5 -447.5zM580 485v463q0 96 66.5 163t162.5 67h61 q96 0 163 -67t67 -163v-51l-115 -18v69q0 49 -35 84t-84 35h-53q-49 0 -84 -35t-35 -84v-463q0 -49 35 -83.5t84 -34.5h53q49 0 84 34.5t35 83.5v70l115 -18v-52q0 -96 -66.5 -162.5t-163.5 -66.5h-61q-96 0 -162.5 66.5t-66.5 162.5z" />
<glyph unicode="&#xaa;" horiz-adv-x="716" d="M143 553v78h430v-78h-430zM143 979q0 80 55.5 135t135.5 55h145v86q0 39 -28.5 68t-67.5 29h-43q-39 0 -67.5 -29t-28.5 -68v-36l-94 24q0 82 55 140.5t135 58.5h43q80 0 135 -56.5t55 -134.5v-456h-41l-36 53q-61 -66 -144 -66h-18q-80 0 -135.5 57.5t-55.5 139.5z M238 969q0 -39 28.5 -68t67.5 -29h49q39 0 67.5 29t28.5 68v123h-145q-39 0 -67.5 -28t-28.5 -69v-26z" />
<glyph unicode="&#xab;" horiz-adv-x="960" d="M82 467l377 383l41 -41l-250 -342l250 -342l-41 -41zM420 467l377 383l41 -41l-250 -342l250 -342l-41 -41z" />
<glyph unicode="&#xac;" horiz-adv-x="1269" d="M123 653v129h1024v-473h-129v344h-895z" />
<glyph unicode="&#xad;" horiz-adv-x="0" />
<glyph unicode="&#xae;" horiz-adv-x="1679" d="M102 717q0 305 216.5 521t521.5 216t521 -216t216 -521t-216 -521t-521 -216t-521.5 216t-216.5 521zM217 717q0 -264 180.5 -447.5t442.5 -183.5t442 183.5t180 447.5t-180 447.5t-442 183.5t-442.5 -183.5t-180.5 -447.5zM600 268v897h291q96 0 162.5 -66.5 t66.5 -162.5v-107q0 -88 -55 -153.5t-139 -75.5l211 -332h-131l-209 330h-82v-330h-115zM715 709h172q49 0 84 34.5t35 85.5v107q0 49 -35 84t-84 35h-172v-346z" />
<glyph unicode="&#xaf;" horiz-adv-x="1009" d="M246 1231v98h518v-98h-518z" />
<glyph unicode="&#xb0;" horiz-adv-x="856" d="M143 1169.5q0 118.5 83 201.5t202 83t202 -83t83 -201.5t-83 -201.5t-202 -83t-202 83t-83 201.5zM258 1169.5q0 -71.5 50 -122t120 -50.5t120 50.5t50 122t-50 121.5t-120 50t-120 -50t-50 -121.5z" />
<glyph unicode="&#xb1;" horiz-adv-x="1351" d="M164 76v129h446v448h-446v129h446v447h129v-447h449v-129h-449v-448h449v-129h-1024z" />
<glyph unicode="&#xb2;" horiz-adv-x="692" d="M143 745v78q12 10 33 26.5t72 68t91 100.5t72.5 114.5t32.5 120.5q0 43 -23.5 68t-58.5 25h-22q-35 0 -59.5 -25t-24.5 -59v-48l-98 13v35q0 74 52 127t126 53h29q76 0 127 -52.5t51 -136.5q0 -80 -58.5 -182t-115.5 -166l-60 -63h240v-97h-406z" />
<glyph unicode="&#xb3;" horiz-adv-x="671" d="M143 915v35l99 15v-50q0 -35 24.5 -58t59.5 -23h20q35 0 59.5 23.5t24.5 57.5v54q0 35 -24.5 59.5t-59.5 24.5h-63v96h63q35 0 59.5 23.5t24.5 58.5v33q0 35 -24.5 58.5t-59.5 23.5h-20q-35 0 -59.5 -24t-24.5 -58v-50l-99 15v35q0 74 52.5 126t126.5 52h28 q74 0 126 -52.5t52 -125.5v-23q0 -92 -65 -141q65 -57 65 -139v-46q0 -74 -52 -126t-126 -52h-28q-74 0 -126.5 52.5t-52.5 125.5z" />
<glyph unicode="&#xb4;" horiz-adv-x="778" d="M205 1188l164 246h204l-276 -246h-92z" />
<glyph unicode="&#xb5;" horiz-adv-x="999" d="M154 -295v1319h122v-750q0 -74 52.5 -126t126.5 -52h82q74 0 126 52.5t52 125.5v750h123v-756q0 -61 43 -104t104 -43h14v-121h-10q-76 0 -139.5 36t-99.5 97q-45 -76 -118 -114.5t-147 -38.5h-30q-98 0 -179 59v-334h-122z" />
<glyph unicode="&#xb6;" horiz-adv-x="1155" d="M102 985v96q0 145 103.5 249t249.5 104h536v-1844h-129v1721h-176v-1721h-129v1043h-102q-145 0 -249 103.5t-104 248.5z" />
<glyph unicode="&#xb7;" horiz-adv-x="440" d="M143 655v154h154v-154h-154z" />
<glyph unicode="&#xb8;" horiz-adv-x="741" d="M205 -348l47 72q35 -45 102 -46q39 0 63.5 21.5t24.5 58.5q0 45 -34.5 70.5t-83.5 21.5l92 150h86l-60 -102q31 -12 63 -49t32 -95q0 -76 -51.5 -121t-133.5 -45q-84 0 -147 64z" />
<glyph unicode="&#xb9;" horiz-adv-x="694" d="M143 745v97h156v485l-156 -65v100l174 72h80v-592h154v-97h-408z" />
<glyph unicode="&#xba;" horiz-adv-x="716" d="M143 553v78h430v-78h-430zM143 973v278q0 78 55.5 134.5t135.5 56.5h49q80 0 135 -56.5t55 -134.5v-278q0 -78 -55 -134.5t-135 -56.5h-49q-80 0 -135.5 56.5t-55.5 134.5zM238 969q0 -39 28.5 -68t67.5 -29h49q39 0 67.5 29t28.5 68v286q0 39 -28.5 68t-67.5 29h-49 q-39 0 -67.5 -29t-28.5 -68v-286z" />
<glyph unicode="&#xbb;" horiz-adv-x="960" d="M123 125l250 342l-250 342l41 41l377 -383l-377 -383zM461 125l250 342l-250 342l41 41l377 -383l-377 -383z" />
<glyph unicode="&#xbc;" horiz-adv-x="1363" d="M143 745v97h156v485l-156 -65v100l174 72h80v-592h154v-97h-408zM287 0l817 1434h115l-818 -1434h-114zM815 119v47l293 520h57v-479h56v-88h-56v-119h-90v119h-260zM942 207h133v242z" />
<glyph unicode="&#xbd;" horiz-adv-x="1447" d="M143 745v97h156v485l-156 -65v100l174 72h80v-592h154v-97h-408zM287 0l817 1434h115l-818 -1434h-114zM899 0v78q12 10 32.5 26.5t72 67.5t91.5 100.5t72.5 115t32.5 120.5q0 43 -23.5 67.5t-58.5 24.5h-22q-35 0 -59.5 -24.5t-24.5 -59.5v-47l-99 12v35q0 74 53.5 127 t125.5 53h28q76 0 127 -52t51 -136q0 -80 -58 -182.5t-118 -165.5l-57 -64h240v-96h-406z" />
<glyph unicode="&#xbe;" horiz-adv-x="1363" d="M143 915v35l99 15v-50q0 -35 24.5 -58t59.5 -23h20q35 0 59.5 23.5t24.5 57.5v54q0 35 -24.5 59.5t-59.5 24.5h-63v96h63q35 0 59.5 23.5t24.5 58.5v33q0 35 -24.5 58.5t-59.5 23.5h-20q-35 0 -59.5 -24t-24.5 -58v-50l-99 15v35q0 74 52.5 126t126.5 52h28 q74 0 126 -52.5t52 -125.5v-23q0 -92 -65 -141q65 -57 65 -139v-46q0 -74 -52 -126t-126 -52h-28q-74 0 -126.5 52.5t-52.5 125.5zM287 0l817 1434h115l-818 -1434h-114zM815 119v47l293 520h57v-479h56v-88h-56v-119h-90v119h-260zM942 207h133v242z" />
<glyph unicode="&#xbf;" horiz-adv-x="950" d="M102 -59q0 102 39 178t94.5 120t109.5 85t93 97t39 130v39h129v-39q0 -96 -39 -167t-94 -114t-109.5 -83t-93.5 -101t-39 -145v-19q0 -94 67 -161.5t163 -67.5h28q96 0 163 67.5t67 161.5v58l129 -21v-37q0 -145 -103.5 -248.5t-248.5 -103.5h-41q-145 0 -249 103.5 t-104 248.5v19zM465 870v154h153v-154h-153z" />
<glyph unicode="&#xc0;" horiz-adv-x="950" d="M20 0l420 1434h68l422 -1434h-133l-95 334h-454l-94 -334h-134zM250 1843h205l163 -246h-92zM283 457h385l-189 661l-4 53l-4 -53z" />
<glyph unicode="&#xc1;" horiz-adv-x="950" d="M20 0l420 1434h68l422 -1434h-133l-95 334h-454l-94 -334h-134zM283 457h385l-189 661l-4 53l-4 -53zM332 1597l164 246h204l-276 -246h-92z" />
<glyph unicode="&#xc2;" horiz-adv-x="950" d="M20 0l420 1434h68l422 -1434h-133l-95 334h-454l-94 -334h-134zM209 1597l205 246h123l204 -246h-123l-143 164l-143 -164h-123zM283 457h385l-189 661l-4 53l-4 -53z" />
<glyph unicode="&#xc3;" horiz-adv-x="950" d="M20 0l420 1434h68l422 -1434h-133l-95 334h-454l-94 -334h-134zM160 1630q0 94 47 153.5t135 59.5q63 0 145 -57t125 -57q41 0 63.5 31.5t22.5 82.5h95q0 -94 -47.5 -154.5t-135.5 -60.5q-70 0 -153.5 57.5t-118.5 57.5q-41 0 -62.5 -31t-21.5 -82h-94zM283 457h385 l-189 661l-4 53l-4 -53z" />
<glyph unicode="&#xc4;" horiz-adv-x="950" d="M20 0l420 1434h68l422 -1434h-133l-95 334h-454l-94 -334h-134zM205 1640v154h153v-154h-153zM283 457h385l-189 661l-4 53l-4 -53zM592 1640v154h153v-154h-153z" />
<glyph unicode="&#xc5;" horiz-adv-x="950" d="M20 0l394 1343q-68 20 -109 75.5t-41 127.5q0 88 61.5 150.5t149.5 62.5t150.5 -62.5t62.5 -150.5q0 -72 -43 -128t-110 -75l395 -1343h-133l-95 334h-454l-94 -334h-134zM283 457h385l-189 661l-4 53l-4 -53zM367 1546q0 -45 31.5 -77.5t76.5 -32.5t78 32.5t33 77.5 q0 47 -33 80t-78 33t-76.5 -33t-31.5 -80z" />
<glyph unicode="&#xc6;" horiz-adv-x="1767" d="M20 0l859 1434h807v-123h-678v-533h548v-123h-548v-532h678v-123h-807v334h-527l-198 -334h-134zM426 457h453v772l-21 -53z" />
<glyph unicode="&#xc7;" horiz-adv-x="1073" d="M143 332v770q0 145 103.5 248.5t249.5 103.5h102q145 0 248.5 -103.5t103.5 -248.5v-58l-129 -20v78q0 94 -66.5 161.5t-162.5 67.5h-90q-96 0 -163 -67.5t-67 -161.5v-770q0 -94 67 -162t163 -68h90q96 0 162.5 68t66.5 162v78l129 -21v-57q0 -145 -103.5 -248.5 t-248.5 -103.5h-4l-47 -82q31 -12 62.5 -49t31.5 -95q0 -76 -51 -121t-133 -45q-84 0 -148 64l47 72q33 -45 103 -46q39 0 63.5 21.5t24.5 58.5q0 45 -35 70.5t-84 21.5l80 130h-12q-145 0 -249 103t-104 249z" />
<glyph unicode="&#xc8;" horiz-adv-x="1052" d="M164 0v1434h807v-123h-678v-533h549v-123h-549v-532h678v-123h-807zM301 1843h205l164 -246h-92z" />
<glyph unicode="&#xc9;" horiz-adv-x="1052" d="M164 0v1434h807v-123h-678v-533h549v-123h-549v-532h678v-123h-807zM424 1597l164 246h205l-277 -246h-92z" />
<glyph unicode="&#xca;" horiz-adv-x="1052" d="M164 0v1434h807v-123h-678v-533h549v-123h-549v-532h678v-123h-807zM301 1597l205 246h123l205 -246h-123l-144 164l-143 -164h-123z" />
<glyph unicode="&#xcb;" horiz-adv-x="1052" d="M164 0v1434h807v-123h-678v-533h549v-123h-549v-532h678v-123h-807zM256 1640v154h154v-154h-154zM643 1640v154h154v-154h-154z" />
<glyph unicode="&#xcc;" horiz-adv-x="456" d="M4 1843h205l164 -246h-92zM164 0v1434h129v-1434h-129z" />
<glyph unicode="&#xcd;" horiz-adv-x="456" d="M86 1597l164 246h205l-277 -246h-92zM164 0v1434h129v-1434h-129z" />
<glyph unicode="&#xce;" horiz-adv-x="456" d="M-37 1597l205 246h123l205 -246h-123l-144 164l-143 -164h-123zM164 0v1434h129v-1434h-129z" />
<glyph unicode="&#xcf;" horiz-adv-x="456" d="M-41 1640v154h154v-154h-154zM164 0v1434h129v-1434h-129zM346 1640v154h154v-154h-154z" />
<glyph unicode="&#xd0;" horiz-adv-x="1138" d="M61 584v102h127v748h455q145 0 248.5 -103.5t103.5 -249.5v-729q0 -145 -103.5 -248.5t-248.5 -103.5h-455v584h-127zM317 123h320q96 0 162.5 67.5t66.5 161.5v729q0 94 -66.5 162t-162.5 68h-320v-625h240v-102h-240v-461z" />
<glyph unicode="&#xd1;" horiz-adv-x="1134" d="M164 0v1434h67l598 -1045l13 -61v1106h129v-1434h-68l-598 1044l-12 62v-1106h-129zM250 1630q0 94 47 153.5t135 59.5q63 0 145 -57t125 -57q41 0 63.5 31.5t22.5 82.5h95q0 -94 -47.5 -154.5t-135.5 -60.5q-70 0 -153.5 57.5t-118.5 57.5q-41 0 -62.5 -31t-21.5 -82 h-94z" />
<glyph unicode="&#xd2;" horiz-adv-x="1093" d="M143 332v770q0 145 103.5 248.5t249.5 103.5h102q145 0 248.5 -103.5t103.5 -248.5v-770q0 -145 -103.5 -248.5t-248.5 -103.5h-102q-145 0 -249 103t-104 249zM272 332q0 -94 67 -162t163 -68h90q96 0 162.5 68t66.5 162v770q0 94 -66.5 161.5t-162.5 67.5h-90 q-96 0 -163 -67.5t-67 -161.5v-770zM342 1843h205l164 -246h-93z" />
<glyph unicode="&#xd3;" horiz-adv-x="1093" d="M143 332v770q0 145 103.5 248.5t249.5 103.5h102q145 0 248.5 -103.5t103.5 -248.5v-770q0 -145 -103.5 -248.5t-248.5 -103.5h-102q-145 0 -249 103t-104 249zM272 332q0 -94 67 -162t163 -68h90q96 0 162.5 68t66.5 162v770q0 94 -66.5 161.5t-162.5 67.5h-90 q-96 0 -163 -67.5t-67 -161.5v-770zM424 1597l164 246h205l-277 -246h-92z" />
<glyph unicode="&#xd4;" horiz-adv-x="1093" d="M143 332v770q0 145 103.5 248.5t249.5 103.5h102q145 0 248.5 -103.5t103.5 -248.5v-770q0 -145 -103.5 -248.5t-248.5 -103.5h-102q-145 0 -249 103t-104 249zM272 332q0 -94 67 -162t163 -68h90q96 0 162.5 68t66.5 162v770q0 94 -66.5 161.5t-162.5 67.5h-90 q-96 0 -163 -67.5t-67 -161.5v-770zM281 1597l204 246h123l205 -246h-123l-143 164l-144 -164h-122z" />
<glyph unicode="&#xd5;" horiz-adv-x="1093" d="M143 332v770q0 145 103.5 248.5t249.5 103.5h102q145 0 248.5 -103.5t103.5 -248.5v-770q0 -145 -103.5 -248.5t-248.5 -103.5h-102q-145 0 -249 103t-104 249zM229 1630q0 94 47.5 153.5t135.5 59.5q63 0 145 -57t125 -57q41 0 63.5 31.5t22.5 82.5h94q0 -94 -47 -154.5 t-135 -60.5q-70 0 -154 57.5t-118 57.5q-41 0 -62.5 -31t-21.5 -82h-95zM272 332q0 -94 67 -162t163 -68h90q96 0 162.5 68t66.5 162v770q0 94 -66.5 161.5t-162.5 67.5h-90q-96 0 -163 -67.5t-67 -161.5v-770z" />
<glyph unicode="&#xd6;" horiz-adv-x="1093" d="M143 332v770q0 145 103.5 248.5t249.5 103.5h102q145 0 248.5 -103.5t103.5 -248.5v-770q0 -145 -103.5 -248.5t-248.5 -103.5h-102q-145 0 -249 103t-104 249zM272 332q0 -94 67 -162t163 -68h90q96 0 162.5 68t66.5 162v770q0 94 -66.5 161.5t-162.5 67.5h-90 q-96 0 -163 -67.5t-67 -161.5v-770zM276 1640v154h154v-154h-154zM664 1640v154h153v-154h-153z" />
<glyph unicode="&#xd7;" horiz-adv-x="1196" d="M102 313l404 406l-402 401l91 92l403 -403l403 403l91 -92l-402 -401l404 -406l-93 -90l-403 404l-403 -404z" />
<glyph unicode="&#xd8;" horiz-adv-x="1093" d="M102 -61l99 198q-57 86 -58 195v770q0 145 103.5 248.5t249.5 103.5h102q127 0 223 -80l62 121h108l-100 -201q59 -90 59 -192v-770q0 -145 -103.5 -248.5t-248.5 -103.5h-102q-129 0 -226 79l-59 -120h-109zM272 332q0 -31 4 -45l486 968q-66 76 -170 76h-90 q-96 0 -163 -67.5t-67 -161.5v-770zM330 178q70 -76 172 -76h90q96 0 162.5 68t66.5 162v770q0 16 -4 45z" />
<glyph unicode="&#xd9;" horiz-adv-x="1093" d="M143 332v1102h129v-1102q0 -94 67 -162t163 -68h90q96 0 162.5 68t66.5 162v1102h129v-1102q0 -145 -103.5 -248.5t-248.5 -103.5h-102q-145 0 -249 103t-104 249zM301 1843h205l164 -246h-92z" />
<glyph unicode="&#xda;" horiz-adv-x="1093" d="M143 332v1102h129v-1102q0 -94 67 -162t163 -68h90q96 0 162.5 68t66.5 162v1102h129v-1102q0 -145 -103.5 -248.5t-248.5 -103.5h-102q-145 0 -249 103t-104 249zM424 1597l164 246h205l-277 -246h-92z" />
<glyph unicode="&#xdb;" horiz-adv-x="1093" d="M143 332v1102h129v-1102q0 -94 67 -162t163 -68h90q96 0 162.5 68t66.5 162v1102h129v-1102q0 -145 -103.5 -248.5t-248.5 -103.5h-102q-145 0 -249 103t-104 249zM281 1597l204 246h123l205 -246h-123l-143 164l-144 -164h-122z" />
<glyph unicode="&#xdc;" horiz-adv-x="1093" d="M143 332v1102h129v-1102q0 -94 67 -162t163 -68h90q96 0 162.5 68t66.5 162v1102h129v-1102q0 -145 -103.5 -248.5t-248.5 -103.5h-102q-145 0 -249 103t-104 249zM276 1640v154h154v-154h-154zM664 1640v154h153v-154h-153z" />
<glyph unicode="&#xdd;" horiz-adv-x="950" d="M41 1434h139l295 -596l295 596h139l-368 -748v-686h-129v684zM373 1597l164 246h204l-276 -246h-92z" />
<glyph unicode="&#xde;" horiz-adv-x="1052" d="M164 0v1434h129v-283h325q145 0 249 -103.5t104 -248.5v-117q0 -145 -103.5 -248.5t-249.5 -103.5h-325v-330h-129zM293 453h319q96 0 163 66.5t67 162.5v117q0 94 -66.5 161.5t-163.5 67.5h-319v-575z" />
<glyph unicode="&#xdf;" horiz-adv-x="1052" d="M170 0v1102q0 147 100.5 249.5t245.5 102.5h66q145 0 248.5 -103.5t103.5 -248.5v-25q0 -100 -51.5 -183t-134.5 -128q84 -45 135 -128t51 -183v-103q0 -145 -103.5 -248.5t-248.5 -103.5h-111v117h111q94 0 161.5 66.5t67.5 162.5v131q0 96 -67.5 163t-161.5 67h-111 v116h111q94 0 161.5 67.5t67.5 162.5v55q0 96 -67.5 162.5t-161.5 66.5h-60q-96 0 -162.5 -66.5t-66.5 -162.5v-1108h-123z" />
<glyph unicode="&#xe0;" d="M123 281v10q0 125 88 213t213 88h260v158q0 74 -52 126t-126 52h-72q-74 0 -126 -52.5t-52 -125.5v-37l-123 20v10q0 125 88 213t213 88h72q125 0 213 -88t88 -213v-743h-41l-68 102q-92 -123 -243 -122h-31q-125 0 -213 88t-88 213zM240 1434h204l164 -246h-92zM246 274 q0 -74 52 -126t126 -52h82q74 0 126 52t52 126v222h-260q-74 0 -126 -52.5t-52 -126.5v-43z" />
<glyph unicode="&#xe1;" d="M123 281v10q0 125 88 213t213 88h260v158q0 74 -52 126t-126 52h-72q-74 0 -126 -52.5t-52 -125.5v-37l-123 20v10q0 125 88 213t213 88h72q125 0 213 -88t88 -213v-743h-41l-68 102q-92 -123 -243 -122h-31q-125 0 -213 88t-88 213zM246 274q0 -74 52 -126t126 -52h82 q74 0 126 52t52 126v222h-260q-74 0 -126 -52.5t-52 -126.5v-43zM322 1188l163 246h205l-276 -246h-92z" />
<glyph unicode="&#xe2;" d="M123 281v10q0 125 88 213t213 88h260v158q0 74 -52 126t-126 52h-72q-74 0 -126 -52.5t-52 -125.5v-37l-123 20v10q0 125 88 213t213 88h72q125 0 213 -88t88 -213v-743h-41l-68 102q-92 -123 -243 -122h-31q-125 0 -213 88t-88 213zM219 1188l205 246h123l205 -246h-123 l-144 164l-143 -164h-123zM246 274q0 -74 52 -126t126 -52h82q74 0 126 52t52 126v222h-260q-74 0 -126 -52.5t-52 -126.5v-43z" />
<glyph unicode="&#xe3;" d="M123 281v10q0 125 88 213t213 88h260v158q0 74 -52 126t-126 52h-72q-74 0 -126 -52.5t-52 -125.5v-37l-123 20v10q0 125 88 213t213 88h72q125 0 213 -88t88 -213v-743h-41l-68 102q-92 -123 -243 -122h-31q-125 0 -213 88t-88 213zM150 1221q0 94 47 153.5t135 59.5 q61 0 143 -57.5t127 -57.5q41 0 63.5 31.5t22.5 83.5h94q0 -94 -47 -154.5t-135 -60.5q-70 0 -154 57t-118 57q-41 0 -62.5 -30.5t-21.5 -81.5h-94zM246 274q0 -74 52 -126t126 -52h82q74 0 126 52t52 126v222h-260q-74 0 -126 -52.5t-52 -126.5v-43z" />
<glyph unicode="&#xe4;" d="M123 281v10q0 125 88 213t213 88h260v158q0 74 -52 126t-126 52h-72q-74 0 -126 -52.5t-52 -125.5v-37l-123 20v10q0 125 88 213t213 88h72q125 0 213 -88t88 -213v-743h-41l-68 102q-92 -123 -243 -122h-31q-125 0 -213 88t-88 213zM215 1231v153h154v-153h-154z M246 274q0 -74 52 -126t126 -52h82q74 0 126 52t52 126v222h-260q-74 0 -126 -52.5t-52 -126.5v-43zM602 1231v153h154v-153h-154z" />
<glyph unicode="&#xe5;" d="M123 281v10q0 125 88 213t213 88h260v158q0 74 -52 126t-126 52h-72q-74 0 -126 -52.5t-52 -125.5v-37l-123 20v10q0 125 88 213t213 88h72q125 0 213 -88t88 -213v-743h-41l-68 102q-92 -123 -243 -122h-31q-125 0 -213 88t-88 213zM246 274q0 -74 52 -126t126 -52h82 q74 0 126 52t52 126v222h-260q-74 0 -126 -52.5t-52 -126.5v-43zM258 1358q0 88 61.5 150.5t149.5 62.5t150.5 -62.5t62.5 -150.5t-62.5 -149.5t-150.5 -61.5t-149.5 61.5t-61.5 149.5zM360 1358q0 -45 32 -78t77 -33t78 33t33 78q0 47 -33 79.5t-78 32.5t-77 -32.5 t-32 -79.5z" />
<glyph unicode="&#xe6;" horiz-adv-x="1490" d="M123 281v10q0 125 88 213t213 88h260v164q-4 72 -55 122t-123 50h-72q-74 0 -126 -52.5t-52 -125.5v-37l-123 20v10q0 125 88 213t213 88h72q150 0 239 -120q90 121 240 120h82q125 0 213 -88t88 -213v-241h-561v-228q0 -74 52 -126t126 -52h82q74 0 126 52.5t52 125.5 v68l123 -20v-41q0 -125 -88 -213t-213 -88h-82q-84 0 -154.5 41.5t-109.5 111.5q-96 -154 -266 -153h-31q-125 0 -213 88t-88 213zM246 274q0 -74 52 -126t126 -52h82q74 0 126 52t52 126v222h-260q-74 0 -126 -52.5t-52 -126.5v-43zM807 598h438v152q0 74 -52 126t-126 52 h-82q-72 0 -124 -50.5t-54 -121.5v-158z" />
<glyph unicode="&#xe7;" d="M123 281v462q0 125 88 213t213 88h82q125 0 213 -88t88 -213v-41l-123 -20v68q0 74 -52 126t-126 52h-82q-74 0 -126 -52.5t-52 -125.5v-476q0 -74 52 -126t126 -52h82q74 0 126 52.5t52 125.5v68l123 -20v-41q0 -119 -83 -206t-202 -95l-47 -82q31 -12 62.5 -49 t31.5 -95q0 -76 -51 -121t-133 -45q-84 0 -147 64l47 72q35 -45 102 -46q39 0 63.5 21.5t24.5 58.5q0 45 -35 70.5t-84 21.5l80 130h-12q-125 0 -213 88t-88 213z" />
<glyph unicode="&#xe8;" d="M123 281v462q0 125 88 213t213 88h82q125 0 213 -88t88 -213v-241h-561v-228q0 -74 52 -126t126 -52h82q74 0 126 52.5t52 125.5v68l123 -20v-41q0 -125 -88 -213t-213 -88h-82q-125 0 -213 88t-88 213zM240 1434h204l164 -246h-92zM246 598h438v152q0 74 -52 126 t-126 52h-82q-74 0 -126 -52.5t-52 -125.5v-152z" />
<glyph unicode="&#xe9;" d="M123 281v462q0 125 88 213t213 88h82q125 0 213 -88t88 -213v-241h-561v-228q0 -74 52 -126t126 -52h82q74 0 126 52.5t52 125.5v68l123 -20v-41q0 -125 -88 -213t-213 -88h-82q-125 0 -213 88t-88 213zM246 598h438v152q0 74 -52 126t-126 52h-82q-74 0 -126 -52.5 t-52 -125.5v-152zM322 1188l163 246h205l-276 -246h-92z" />
<glyph unicode="&#xea;" d="M123 281v462q0 125 88 213t213 88h82q125 0 213 -88t88 -213v-241h-561v-228q0 -74 52 -126t126 -52h82q74 0 126 52.5t52 125.5v68l123 -20v-41q0 -125 -88 -213t-213 -88h-82q-125 0 -213 88t-88 213zM219 1188l205 246h123l205 -246h-123l-144 164l-143 -164h-123z M246 598h438v152q0 74 -52 126t-126 52h-82q-74 0 -126 -52.5t-52 -125.5v-152z" />
<glyph unicode="&#xeb;" d="M123 281v462q0 125 88 213t213 88h82q125 0 213 -88t88 -213v-241h-561v-228q0 -74 52 -126t126 -52h82q74 0 126 52.5t52 125.5v68l123 -20v-41q0 -125 -88 -213t-213 -88h-82q-125 0 -213 88t-88 213zM215 1231v153h154v-153h-154zM246 598h438v152q0 74 -52 126 t-126 52h-82q-74 0 -126 -52.5t-52 -125.5v-152zM602 1231v153h154v-153h-154z" />
<glyph unicode="&#xec;" horiz-adv-x="450" d="M0 1434h205l164 -246h-93zM164 0v1024h123v-1024h-123z" />
<glyph unicode="&#xed;" horiz-adv-x="450" d="M82 1188l164 246h205l-277 -246h-92zM164 0v1024h123v-1024h-123z" />
<glyph unicode="&#xee;" horiz-adv-x="450" d="M-41 1188l205 246h123l205 -246h-123l-144 164l-143 -164h-123zM164 0v1024h123v-1024h-123z" />
<glyph unicode="&#xef;" horiz-adv-x="450" d="M-45 1231v153h154v-153h-154zM164 0v1024h123v-1024h-123zM342 1231v153h154v-153h-154z" />
<glyph unicode="&#xf0;" d="M123 281v462q0 125 88 213t213 88h82q66 0 127 -28q-27 98 -90 190l-228 -65l-18 65l201 58q-74 88 -189 170h148q78 -51 151 -138l219 64l21 -66l-197 -57q156 -225 156 -494v-462q0 -125 -88 -213t-213 -88h-82q-125 0 -213 88t-88 213zM246 274q0 -74 52 -126t126 -52 h82q74 0 126 52t52 126v476q0 74 -52 126t-126 52h-82q-74 0 -126 -52.5t-52 -125.5v-476z" />
<glyph unicode="&#xf1;" d="M123 0v1024h41l67 -104q92 125 244 124h31q125 0 213 -88t88 -213v-743h-123v750q0 74 -52 126t-126 52h-82q-74 0 -126 -52.5t-52 -125.5v-750h-123zM150 1221q0 94 47 153.5t135 59.5q61 0 143 -57.5t127 -57.5q41 0 63.5 31.5t22.5 83.5h94q0 -94 -47 -154.5 t-135 -60.5q-70 0 -154 57t-118 57q-41 0 -62.5 -30.5t-21.5 -81.5h-94z" />
<glyph unicode="&#xf2;" d="M123 281v462q0 125 88 213t213 88h82q125 0 213 -88t88 -213v-462q0 -125 -88 -213t-213 -88h-82q-125 0 -213 88t-88 213zM240 1434h204l164 -246h-92zM246 274q0 -74 52 -126t126 -52h82q74 0 126 52t52 126v476q0 74 -52 126t-126 52h-82q-74 0 -126 -52.5t-52 -125.5 v-476z" />
<glyph unicode="&#xf3;" d="M123 281v462q0 125 88 213t213 88h82q125 0 213 -88t88 -213v-462q0 -125 -88 -213t-213 -88h-82q-125 0 -213 88t-88 213zM246 274q0 -74 52 -126t126 -52h82q74 0 126 52t52 126v476q0 74 -52 126t-126 52h-82q-74 0 -126 -52.5t-52 -125.5v-476zM322 1188l163 246h205 l-276 -246h-92z" />
<glyph unicode="&#xf4;" d="M123 281v462q0 125 88 213t213 88h82q125 0 213 -88t88 -213v-462q0 -125 -88 -213t-213 -88h-82q-125 0 -213 88t-88 213zM199 1188l204 246h123l205 -246h-123l-143 164l-143 -164h-123zM246 274q0 -74 52 -126t126 -52h82q74 0 126 52t52 126v476q0 74 -52 126 t-126 52h-82q-74 0 -126 -52.5t-52 -125.5v-476z" />
<glyph unicode="&#xf5;" d="M123 281v462q0 125 88 213t213 88h82q125 0 213 -88t88 -213v-462q0 -125 -88 -213t-213 -88h-82q-125 0 -213 88t-88 213zM150 1221q0 94 47 153.5t135 59.5q61 0 143 -57.5t127 -57.5q41 0 63.5 31.5t22.5 83.5h94q0 -94 -47 -154.5t-135 -60.5q-70 0 -154 57t-118 57 q-41 0 -62.5 -30.5t-21.5 -81.5h-94zM246 274q0 -74 52 -126t126 -52h82q74 0 126 52t52 126v476q0 74 -52 126t-126 52h-82q-74 0 -126 -52.5t-52 -125.5v-476z" />
<glyph unicode="&#xf6;" d="M123 281v462q0 125 88 213t213 88h82q125 0 213 -88t88 -213v-462q0 -125 -88 -213t-213 -88h-82q-125 0 -213 88t-88 213zM195 1231v153h153v-153h-153zM246 274q0 -74 52 -126t126 -52h82q74 0 126 52t52 126v476q0 74 -52 126t-126 52h-82q-74 0 -126 -52.5 t-52 -125.5v-476zM582 1231v153h153v-153h-153z" />
<glyph unicode="&#xf7;" horiz-adv-x="1187" d="M82 653v129h1024v-129h-1024zM455 336q0 57 41 98t98 41t98 -41t41 -98t-41 -98t-98 -41t-98 41t-41 98zM455 1099.5q0 57.5 41 98.5t98 41t98 -41t41 -98.5t-41 -98t-98 -40.5t-98 40.5t-41 98z" />
<glyph unicode="&#xf8;" horiz-adv-x="931" d="M61 -61l109 178q-47 72 -47 164v462q0 125 88 213t213 88h82q104 0 188 -67l68 108h108l-110 -180q47 -78 47 -162v-462q0 -125 -88 -213t-213 -88h-82q-106 0 -188 65l-66 -106h-109zM246 274q0 -20 2 -30l385 630q-53 53 -127 54h-82q-74 0 -126 -52.5t-52 -125.5v-476 zM297 147q51 -51 127 -51h82q74 0 126 52t52 126v476q0 4 -1 13t-1 13z" />
<glyph unicode="&#xf9;" d="M123 281v743h123v-750q0 -74 52 -126t126 -52h82q74 0 126 52.5t52 125.5v750h123v-1024h-41l-68 104q-92 -125 -243 -124h-31q-125 0 -213 88t-88 213zM199 1434h204l164 -246h-92z" />
<glyph unicode="&#xfa;" d="M123 281v743h123v-750q0 -74 52 -126t126 -52h82q74 0 126 52.5t52 125.5v750h123v-1024h-41l-68 104q-92 -125 -243 -124h-31q-125 0 -213 88t-88 213zM362 1188l164 246h205l-276 -246h-93z" />
<glyph unicode="&#xfb;" d="M123 281v743h123v-750q0 -74 52 -126t126 -52h82q74 0 126 52.5t52 125.5v750h123v-1024h-41l-68 104q-92 -125 -243 -124h-31q-125 0 -213 88t-88 213zM199 1188l204 246h123l205 -246h-123l-143 164l-143 -164h-123z" />
<glyph unicode="&#xfc;" d="M123 281v743h123v-750q0 -74 52 -126t126 -52h82q74 0 126 52.5t52 125.5v750h123v-1024h-41l-68 104q-92 -125 -243 -124h-31q-125 0 -213 88t-88 213zM195 1231v153h153v-153h-153zM582 1231v153h153v-153h-153z" />
<glyph unicode="&#xfd;" horiz-adv-x="806" d="M20 1024h123l267 -776l4 -53l4 53l266 776h123l-518 -1434h-119l182 498zM301 1188l164 246h205l-277 -246h-92z" />
<glyph unicode="&#xfe;" horiz-adv-x="950" d="M143 -410v1844h123v-496q90 106 230 106h30q125 0 213 -88t88 -213v-462q0 -125 -88 -213t-213 -88h-30q-139 0 -230 106v-496h-123zM266 274q0 -74 52.5 -126t125.5 -52h82q74 0 126.5 52t52.5 126v476q0 74 -52.5 126t-126.5 52h-82q-74 0 -126 -52.5t-52 -125.5v-476z " />
<glyph unicode="&#xff;" horiz-adv-x="806" d="M20 1024h123l267 -776l4 -53l4 53l266 776h123l-518 -1434h-119l182 498zM154 1231v153h153v-153h-153zM541 1231v153h153v-153h-153z" />
<glyph unicode="&#x152;" horiz-adv-x="1607" d="M143 332v770q0 145 103.5 248.5t249.5 103.5h102q55 0 117 -20h811v-123h-645q70 -96 69 -209v-324h447v-123h-447v-323q0 -117 -69 -209h645v-123h-811q-61 -20 -117 -20h-102q-145 0 -249 103t-104 249zM272 332q0 -94 67 -162t163 -68h90q96 0 162.5 68t66.5 162v770 q0 94 -66.5 161.5t-162.5 67.5h-90q-96 0 -163 -67.5t-67 -161.5v-770z" />
<glyph unicode="&#x153;" horiz-adv-x="1492" d="M123 281v462q0 125 88 213t213 88h82q145 0 239 -120q94 121 242 120h82q125 0 213 -88t88 -213v-241h-561v-228q0 -74 52 -126t126 -52h82q74 0 126 52.5t52 125.5v68l123 -20v-41q0 -125 -88 -213t-213 -88h-82q-152 0 -242 120q-90 -121 -239 -120h-82q-125 0 -213 88 t-88 213zM246 274q0 -74 52 -126t126 -52h82q74 0 126 52t52 126v476q0 74 -52 126t-126 52h-82q-74 0 -126 -52.5t-52 -125.5v-476zM809 598h438v152q0 74 -52 126t-126 52h-82q-74 0 -126 -52.5t-52 -125.5v-152z" />
<glyph unicode="&#x178;" horiz-adv-x="950" d="M41 1434h139l295 -596l295 596h139l-368 -748v-686h-129v684zM205 1640v154h153v-154h-153zM592 1640v154h153v-154h-153z" />
<glyph unicode="&#x2c6;" horiz-adv-x="942" d="M205 1188l205 246h122l205 -246h-123l-143 164l-143 -164h-123z" />
<glyph unicode="&#x2dc;" horiz-adv-x="1042" d="M205 1221q0 94 47 153.5t135 59.5q63 0 145 -57.5t125 -57.5q41 0 63.5 31.5t22.5 83.5h95q0 -94 -47.5 -154.5t-135.5 -60.5q-70 0 -153.5 57t-118.5 57q-41 0 -62.5 -30.5t-21.5 -81.5h-94z" />
<glyph unicode="&#x2000;" horiz-adv-x="921" />
<glyph unicode="&#x2001;" horiz-adv-x="1843" />
<glyph unicode="&#x2002;" horiz-adv-x="921" />
<glyph unicode="&#x2003;" horiz-adv-x="1843" />
<glyph unicode="&#x2004;" horiz-adv-x="614" />
<glyph unicode="&#x2005;" horiz-adv-x="460" />
<glyph unicode="&#x2006;" horiz-adv-x="307" />
<glyph unicode="&#x2007;" horiz-adv-x="307" />
<glyph unicode="&#x2008;" horiz-adv-x="230" />
<glyph unicode="&#x2009;" horiz-adv-x="368" />
<glyph unicode="&#x200a;" horiz-adv-x="102" />
<glyph unicode="&#x2010;" horiz-adv-x="587" d="M102 627v116h383v-116h-383z" />
<glyph unicode="&#x2011;" horiz-adv-x="587" d="M102 627v116h383v-116h-383z" />
<glyph unicode="&#x2012;" horiz-adv-x="587" d="M102 627v116h383v-116h-383z" />
<glyph unicode="&#x2013;" horiz-adv-x="1126" d="M102 627v116h922v-116h-922z" />
<glyph unicode="&#x2014;" horiz-adv-x="2048" d="M102 627v116h1844v-116h-1844z" />
<glyph unicode="&#x2018;" horiz-adv-x="399" d="M143 993l103 441h51v-441h-154z" />
<glyph unicode="&#x2019;" horiz-adv-x="399" d="M143 993v441h154l-102 -441h-52z" />
<glyph unicode="&#x201a;" horiz-adv-x="440" d="M143 154h154l-102 -441h-52v441z" />
<glyph unicode="&#x201c;" horiz-adv-x="645" d="M102 993l103 441h51v-441h-154zM348 993l103 441h51v-441h-154z" />
<glyph unicode="&#x201d;" horiz-adv-x="645" d="M143 993v441h154l-102 -441h-52zM389 993v441h154l-103 -441h-51z" />
<glyph unicode="&#x201e;" horiz-adv-x="645" d="M143 154h154l-102 -441h-52v441zM389 154h154l-103 -441h-51v441z" />
<glyph unicode="&#x2022;" horiz-adv-x="958" d="M123 708.5q0 147.5 104.5 252t252 104.5t252 -104.5t104.5 -252t-104.5 -252t-252 -104.5t-252 104.5t-104.5 252z" />
<glyph unicode="&#x2026;" horiz-adv-x="1484" d="M143 0v154h154v-154h-154zM666 0v154h153v-154h-153zM1188 0v154h153v-154h-153z" />
<glyph unicode="&#x202f;" horiz-adv-x="368" />
<glyph unicode="&#x2039;" horiz-adv-x="622" d="M82 467l377 383l41 -41l-250 -342l250 -342l-41 -41z" />
<glyph unicode="&#x203a;" horiz-adv-x="622" d="M123 125l250 342l-250 342l41 41l377 -383l-377 -383z" />
<glyph unicode="&#x205f;" horiz-adv-x="460" />
<glyph unicode="&#x20ac;" horiz-adv-x="1155" d="M82 553v102h143v123h-143v103h143v221q0 145 103.5 248.5t249.5 103.5h102q145 0 248.5 -103.5t103.5 -248.5v-37l-129 -21v58q0 94 -66.5 161.5t-162.5 67.5h-90q-96 0 -163 -67.5t-67 -161.5v-221h473l-59 -103h-414v-123h342l-59 -102h-283v-221q0 -94 66.5 -162 t163.5 -68h90q96 0 162.5 68t66.5 162v57l129 -20v-37q0 -145 -103.5 -248.5t-248.5 -103.5h-102q-145 0 -249 103t-104 249v221h-143z" />
<glyph unicode="&#x2122;" horiz-adv-x="1474" d="M82 1339v95h516v-95h-205v-581h-106v581h-205zM696 758v676h64l254 -519l256 519h61v-676h-104v379l-185 -379h-55l-184 377v-377h-107z" />
<glyph unicode="&#x25fc;" horiz-adv-x="1024" d="M0 0v1024h1024v-1024h-1024z" />
<glyph unicode="&#xfb01;" horiz-adv-x="1038" d="M20 907v117h185v139q0 113 78.5 192t191.5 79h113v-117h-113q-61 0 -104 -43t-43 -105v-145h239v-117h-239v-907h-123v907h-185zM741 1270v164h144v-164h-144zM752 0v1024h122v-1024h-122z" />
<glyph unicode="&#xfb02;" horiz-adv-x="1038" d="M20 907v117h185v139q0 113 78.5 192t191.5 79h113v-117h-113q-61 0 -104 -43t-43 -105v-145h239v-117h-239v-907h-123v907h-185zM752 0v1434h122v-1434h-122z" />
</font>
</defs>
</svg>
