<?xml version="1.0" encoding="utf-8"?>
<!-- Generator: Adobe Illustrator 18.0.0, SVG Export Plug-In . SVG Version: 6.00 Build 0)  -->
<!DOCTYPE svg PUBLIC "-//W3C//DTD SVG 1.1//EN" "http://www.w3.org/Graphics/SVG/1.1/DTD/svg11.dtd">
<svg version="1.1" id="Capa_1" xmlns="http://www.w3.org/2000/svg" xmlns:xlink="http://www.w3.org/1999/xlink" x="0px" y="0px"
	 viewBox="0 0 24 22" enable-background="new 0 0 24 22" xml:space="preserve">
<g>
	<path fill="#FFFFFF" d="M21,15.7c-0.4,0-0.6-0.3-0.6-0.6s0.3-0.6,0.6-0.6c0.4,0,0.6,0.3,0.6,0.6S21.4,15.7,21,15.7L21,15.7z M12,9
		L4.5,6L12,2.9L19.5,6L12,9z M16.5,11.2c0,0.9-1.9,2-4.5,2c-2.6,0-4.5-1-4.5-2V8.6l4.5,1.8l4.5-1.8V11.2z M23,15.1
		c0-0.9-0.5-1.6-1.3-1.8V6.5L23,6L12,1.5L1,6l5.2,2.1v3.1c0,1,0.7,1.8,1.9,2.4c1.1,0.5,2.5,0.8,3.9,0.8c1.5,0,2.9-0.3,3.9-0.8
		c1.2-0.6,1.9-1.5,1.9-2.4V8.1L20.4,7v6.2c-0.8,0.3-1.3,1-1.3,1.8c0,0.8,0.4,1.5,1.1,1.8l-1.1,3.2l1.2,0.4l0.7-2.1l0.7,2.1l1.2-0.4
		l-1.1-3.2C22.5,16.5,23,15.9,23,15.1L23,15.1z"/>
</g>
</svg>
