<?xml version="1.0" encoding="utf-8"?>
<!-- Generator: Adobe Illustrator 18.0.0, SVG Export Plug-In . SVG Version: 6.00 Build 0)  -->
<!DOCTYPE svg PUBLIC "-//W3C//DTD SVG 1.1//EN" "http://www.w3.org/Graphics/SVG/1.1/DTD/svg11.dtd">
<svg version="1.1" id="Capa_1" xmlns="http://www.w3.org/2000/svg" xmlns:xlink="http://www.w3.org/1999/xlink" x="0px" y="0px"
	 viewBox="0 0 24 22" enable-background="new 0 0 24 22" xml:space="preserve">
<g>
	<path fill-rule="evenodd" clip-rule="evenodd" fill="#FFFFFF" d="M19.1,3.5H6.6c-0.2,0-0.4-0.2-0.4-0.4s0.2-0.4,0.4-0.4h12.5
		c0.1-0.7,0.3-1,0.3-1c0.1-0.1,0.1-0.3,0.1-0.5C19.4,1.1,19.2,1,19.1,1H6.6C5.4,1,4.5,1.9,4.5,3.1c0,1.1,0.9,2.1,2.1,2.1h12.5
		c0.2,0,0.3-0.1,0.4-0.2c0.1-0.1,0-0.3,0-0.5C19.4,4.5,19.2,4.2,19.1,3.5L19.1,3.5z"/>
	<path fill-rule="evenodd" clip-rule="evenodd" fill="#FFFFFF" d="M19.1,6H6.6C5.8,6,5,5.7,4.5,5.1v13.8c0,1.2,0.9,2.1,2.1,2.1h12.5
		c0.2,0,0.4-0.2,0.4-0.4V5.9C19.4,6,19.2,6,19.1,6L19.1,6z"/>
</g>
</svg>
