<?xml version="1.0" encoding="utf-8"?>
<!-- Generator: Adobe Illustrator 18.0.0, SVG Export Plug-In . SVG Version: 6.00 Build 0)  -->
<!DOCTYPE svg PUBLIC "-//W3C//DTD SVG 1.1//EN" "http://www.w3.org/Graphics/SVG/1.1/DTD/svg11.dtd">
<svg version="1.1" id="Capa_1" xmlns="http://www.w3.org/2000/svg" xmlns:xlink="http://www.w3.org/1999/xlink" x="0px" y="0px"
	 viewBox="0 0 24 22" enable-background="new 0 0 24 22" xml:space="preserve">
<g>
	<path fill="#FFFFFF" d="M12.4,5.2c-1.9,0-3.2-0.6-3.2-1.4c0-0.9,1.4-1.5,3.4-1.5c0.7,0,1.3,0.1,1.6,0.2L14,2.8
		c-0.3-0.1-0.7-0.1-1.3-0.1c-1.5,0-2.3,0.5-2.3,1.1c0,0.7,1,1.1,2.2,1.1c0.7,0,1.1-0.1,1.4-0.1L14.2,5C13.9,5.1,13.2,5.2,12.4,5.2
		L12.4,5.2z M12,1.5L2,3.7l10,2.5l10-2.5L12,1.5z"/>
	<path fill="#FFFFFF" d="M5.9,9.6C5.4,9.4,4.8,9.5,4.4,9.7L4.2,8.8C4.7,8.5,5.3,8.4,6,8.6c1.7,0.5,2.1,2.1,2.1,3.5l0,2.7
		c0,0.6,0,1.2,0.1,1.7l-0.9-0.2l-0.1-0.9l0,0c-0.3,0.5-0.9,0.8-1.7,0.6c-1.1-0.3-1.7-1.5-1.7-2.5c0-1.7,1.2-2.3,3.3-1.7v-0.1
		C7.2,11,7,9.9,5.9,9.6L5.9,9.6z M1,17.9l10.7,2.6V6.7L1,4V17.9z"/>
	<path fill="#FFFFFF" d="M4.8,13.6c0,0.8,0.4,1.4,1,1.5c0.7,0.2,1.2-0.3,1.3-0.8c0-0.1,0.1-0.3,0.1-0.4v-1.2
		C6.1,12.3,4.8,12.2,4.8,13.6L4.8,13.6z"/>
	<path fill="#FFFFFF" d="M18.2,11.3c-0.7,0.2-1.4,0.8-1.6,1.6c0,0.1-0.1,0.3-0.1,0.4v1c0,0.1,0,0.3,0,0.4c0.2,0.7,0.8,1.1,1.5,0.9
		c1.1-0.2,1.7-1.3,1.7-2.6C19.9,11.9,19.3,11,18.2,11.3L18.2,11.3z"/>
	<path fill="#FFFFFF" d="M18.4,16.4c-0.8,0.2-1.5,0-1.9-0.7l0,0l0,1l-0.9,0.2c0-0.4,0-1,0-1.5v-7l1-0.2v3.6h0c0.4-0.7,1-1.3,1.9-1.5
		c1.4-0.3,2.4,0.7,2.4,2.5C20.9,14.9,19.7,16.2,18.4,16.4L18.4,16.4z M12.3,6.7v13.8L23,17.9V4L12.3,6.7z"/>
</g>
</svg>
